<svg width="200" height="150" viewBox="0 0 200 150" fill="none" xmlns="http://www.w3.org/2000/svg">
<path d="M104.431 149.803L63.3986 148.99C50.1133 148.706 36.7949 149.272 23.7701 146.335C3.95628 141.946 2.5526 120.428 1.0838 102.378C-0.940059 77.0018 -0.156563 51.1653 3.66272 26.0012C5.81883 11.8814 14.304 3.45609 27.426 2.53925C71.7225 -0.788083 116.314 -0.393758 160.512 1.15856C165.18 1.30087 169.88 2.07866 174.482 2.96399C197.203 7.28204 197.757 31.6673 199.23 52.1951C200.698 72.9347 200.078 93.7808 197.271 114.379C195.019 131.434 190.709 145.736 172.524 147.117C149.738 148.922 127.476 150.376 104.626 149.913C104.627 149.803 104.496 149.803 104.431 149.803ZM80.3079 106.625C97.4786 95.936 114.322 85.425 131.394 74.8075C114.192 64.1183 97.3804 53.6073 80.3079 42.9898V106.625Z" fill="#3E3E3E"/>
</svg>
